<?xml version="1.0" encoding="utf-8"?>
<!-- Generator: Adobe Illustrator 17.0.0, SVG Export Plug-In . SVG Version: 6.00 Build 0)  -->
<!DOCTYPE svg PUBLIC "-//W3C//DTD SVG 1.1//EN" "http://www.w3.org/Graphics/SVG/1.1/DTD/svg11.dtd">
<svg version="1.1" xmlns="http://www.w3.org/2000/svg" xmlns:xlink="http://www.w3.org/1999/xlink" x="0px" y="0px" width="100px"
	 height="100px" viewBox="0 0 100 100" enable-background="new 0 0 100 100" xml:space="preserve">
<g id="Background" display="none">
	<rect display="inline" fill="#59524C" width="100" height="100"/>
</g>
<g id="Question_mark">
	<g>
		<path fill="#F3F2F1" d="M73.801,74.453v-3.07c0-2.655,0.56-4.965,1.679-6.929c1.119-1.963,3.166-4.052,6.141-6.265
			c2.866-2.074,4.756-3.761,5.67-5.062c0.914-1.3,1.372-2.752,1.372-4.356c0-1.797-0.655-3.167-1.966-4.107
			c-1.31-0.94-3.139-1.411-5.485-1.411c-4.094,0-8.761,1.355-14.011,4.046l-4.462-9.085c6.095-3.438,12.55-5.167,19.373-5.167
			c5.622,0,10.092,1.369,13.407,4.107c3.316,2.738,4.975,6.389,4.975,10.953c0,3.042-0.683,5.67-2.047,7.883
			c-1.365,2.213-3.958,4.702-7.778,7.468c-2.62,1.964-4.278,3.457-4.975,4.48c-0.695,1.023-1.044,2.364-1.044,4.024v2.489H73.801z
			 M72.491,88.642c0-2.323,0.614-4.079,1.842-5.269c1.229-1.189,3.016-1.784,5.363-1.784c2.265,0,4.019,0.608,5.261,1.825
			c1.241,1.218,1.862,2.96,1.862,5.228c0,2.186-0.628,3.907-1.883,5.165c-1.256,1.258-3.003,1.888-5.24,1.888
			c-2.293,0-4.067-0.616-5.322-1.846C73.118,92.618,72.491,90.882,72.491,88.642z"/>
	</g>
</g>
<g id="Paper">
	<polygon fill="#FFFFFF" points="4.5,4.5 4.5,70.5 15.5,70.5 15.5,15.5 55.5,15.5 55.5,4.5 	"/>
	<path fill="#FFFFFF" d="M70.5,47.906c-1.72,0.842-2.425,1.184-4.203,2.094c-2.344-4.813-4.142-8.36-6.203-12.609
		c3.69-2.088,5.516-3.039,10.406-4.703c0-3.75,0-13.188,0-13.188h-51v66h51C70.5,85.5,70.5,57.24,70.5,47.906z"/>
</g>
</svg>
